<svg xmlns="http://www.w3.org/2000/svg" viewBox="0 0 1200 760" role="img" aria-label="Illustrated destination in Cornwall">
  <defs>
    <linearGradient id="sky" x1="0" y1="0" x2="0" y2="1">
      <stop offset="0" stop-color="#0f1830"/>
      <stop offset="0.55" stop-color="#24396a"/>
      <stop offset="1" stop-color="#f3a15f"/>
    </linearGradient>
    <linearGradient id="sea" x1="0" y1="0" x2="1" y2="1">
      <stop offset="0" stop-color="#8ad8ff"/>
      <stop offset="1" stop-color="#236f98"/>
    </linearGradient>
    <linearGradient id="hill" x1="0" y1="0" x2="0" y2="1">
      <stop offset="0" stop-color="#7ea766"/>
      <stop offset="1" stop-color="#3a5b3c"/>
    </linearGradient>
    <linearGradient id="house" x1="0" y1="0" x2="1" y2="1">
      <stop offset="0" stop-color="#cc8259"/>
      <stop offset="1" stop-color="#7a3b27"/>
    </linearGradient>
    <radialGradient id="tub" cx="50%" cy="50%" r="50%">
      <stop offset="0" stop-color="#aef7ff"/>
      <stop offset="1" stop-color="#4db4d3"/>
    </radialGradient>
    <filter id="shadow" x="-20%" y="-20%" width="140%" height="160%">
      <feDropShadow dx="0" dy="12" stdDeviation="18" flood-color="#0d1020" flood-opacity="0.28"/>
    </filter>
  </defs>
  <rect width="1200" height="760" fill="url(#sky)"/>
  <g fill="#fff7dd" opacity="0.9">
    <circle cx="95" cy="78" r="3"/><circle cx="165" cy="134" r="2.8"/><circle cx="238" cy="72" r="2.4"/>
    <circle cx="318" cy="122" r="2.6"/><circle cx="420" cy="84" r="2.1"/><circle cx="522" cy="58" r="3.2"/>
    <circle cx="620" cy="112" r="2.5"/><circle cx="721" cy="72" r="2.2"/><circle cx="810" cy="128" r="3"/>
    <circle cx="924" cy="68" r="2.4"/><circle cx="1004" cy="118" r="2.7"/><circle cx="1092" cy="84" r="2.1"/>
    <circle cx="1128" cy="156" r="2.5"/><circle cx="171" cy="202" r="2.4"/><circle cx="602" cy="190" r="2.1"/>
    <circle cx="782" cy="188" r="2.7"/><circle cx="936" cy="170" r="2.3"/>
  </g>
  <circle cx="1005" cy="136" r="46" fill="#fff2cf" opacity="0.96"/>
  <path d="M0 470 C140 415 220 430 332 385 C466 332 596 360 738 316 C858 278 978 298 1200 248 L1200 760 L0 760 Z" fill="url(#hill)"/>
  <path d="M730 330 C830 355 940 352 1200 290 L1200 760 L730 760 Z" fill="url(#sea)" opacity="0.95"/>
  <path d="M660 354 C774 376 893 364 1200 304 L1200 332 C1006 360 860 432 756 470 C696 492 660 498 604 508 C514 522 400 520 265 552 L0 602 L0 760 L1200 760 L1200 740 C1022 684 954 670 842 646 C726 620 698 554 660 354 Z" fill="#4c6847" opacity="0.36"/>
  <path d="M0 560 C145 516 230 516 344 484 C483 444 589 443 705 424 C819 405 1002 432 1200 392 L1200 760 L0 760 Z" fill="#2b4730"/>
  <g filter="url(#shadow)">
    <g transform="translate(255,292)">
      <path d="M0 112 L0 32 L92 0 L242 0 L322 34 L322 112 Z" fill="#89939e"/>
      <rect x="22" y="112" width="278" height="168" rx="10" fill="url(#house)"/>
      <circle cx="32" cy="122" r="13" fill="#29404d"/>
      <rect x="104" y="96" width="62" height="58" rx="8" fill="#0f2436"/>
      <rect x="184" y="78" width="50" height="74" rx="8" fill="#133552"/>
      <rect x="34" y="164" width="54" height="104" rx="8" fill="#14394d"/>
      <rect x="108" y="170" width="76" height="72" rx="8" fill="#103149"/>
      <rect x="204" y="168" width="72" height="76" rx="8" fill="#103149"/>
      <path d="M158 280 h30 v42 h-30z" fill="#91553e"/>
      <circle cx="18" cy="184" r="18" fill="#284b54"/>
      <circle cx="300" cy="182" r="18" fill="#284b54"/>
    </g>
    <g transform="translate(740,508)">
      <ellipse cx="120" cy="50" rx="124" ry="66" fill="#8c765c"/>
      <ellipse cx="120" cy="54" rx="96" ry="44" fill="url(#tub)"/>
      <ellipse cx="120" cy="34" rx="90" ry="36" fill="#cbbaa1" opacity="0.72"/>
      <circle cx="95" cy="50" r="5" fill="#ffffff" opacity="0.55"/>
      <circle cx="148" cy="36" r="4" fill="#ffffff" opacity="0.5"/>
      <circle cx="133" cy="61" r="6" fill="#ffffff" opacity="0.4"/>
      <circle cx="59" cy="39" r="7" fill="#ffffff" opacity="0.45"/>
    </g>
  </g>
  <g transform="translate(90,586)">
    <rect width="430" height="106" rx="26" fill="#ffffff" fill-opacity="0.14" stroke="#ffffff" stroke-opacity="0.26"/>
    <text x="34" y="44" font-family="Inter,Arial,sans-serif" font-size="22" fill="#ffe7cd" letter-spacing="3">LANREATH, CORNWALL</text>
    <text x="34" y="80" font-family="Georgia,serif" font-size="34" fill="#ffffff">The Observatory vibes</text>
  </g>
</svg>